<?xml version="1.0" standalone="no"?>
<!DOCTYPE svg PUBLIC "-//W3C//DTD SVG 20010904//EN"
 "http://www.w3.org/TR/2001/REC-SVG-20010904/DTD/svg10.dtd">
<svg version="1.0" xmlns="http://www.w3.org/2000/svg"
 width="150.000000pt" height="39.000000pt" viewBox="0 0 150.000000 39.000000"
 preserveAspectRatio="xMidYMid meet">

<g transform="translate(0.000000,39.000000) scale(0.100000,-0.100000)"
fill="#000000" stroke="none">
<path d="M1450 379 c-43 -11 -310 -18 -928 -23 -346 -4 -478 -8 -488 -17 -8
-6 -14 -26 -14 -43 1 -17 0 -88 -2 -157 l-4 -127 40 -5 c23 -3 73 -2 112 2 39
3 296 8 570 9 597 4 735 8 745 24 6 9 11 350 6 347 -1 -1 -18 -5 -37 -10z
m-999 -69 c20 -6 55 -24 78 -40 34 -25 41 -36 41 -63 0 -42 -26 -81 -49 -71
-9 4 -26 6 -38 5 -28 -1 -29 3 -3 29 11 11 20 25 20 30 0 20 -50 58 -91 68
-36 9 -39 8 -34 -8 7 -21 -23 -36 -39 -20 -8 8 -6 15 8 26 24 17 14 18 -56 3
-135 -29 -169 -85 -75 -124 48 -20 57 -19 57 5 0 13 -10 24 -25 30 -36 14 -32
33 5 25 25 -5 29 -4 24 9 -5 12 1 16 24 16 17 0 34 -5 37 -10 4 -7 12 -7 24 0
25 13 34 0 15 -21 -14 -16 -13 -18 16 -24 42 -9 27 -23 -29 -27 -25 -2 -46 -9
-49 -15 -5 -16 90 -18 118 -3 13 7 19 6 24 -5 3 -9 12 -12 23 -9 14 4 13 1 -5
-14 -66 -59 -283 -41 -360 31 -73 67 -31 136 113 184 44 14 164 11 226 -7z
m328 -21 c37 -13 52 -52 29 -76 -9 -8 -33 -17 -56 -20 -28 -4 -42 -11 -45 -24
-4 -13 -14 -19 -36 -19 l-31 0 0 69 c0 46 4 71 13 74 22 10 94 7 126 -4z m119
-41 c3 -47 4 -48 37 -48 19 0 40 -6 47 -14 11 -11 19 -4 49 48 32 56 38 61 69
61 32 0 38 -5 78 -70 l43 -70 -33 -3 c-21 -2 -36 2 -44 12 -14 20 -67 21 -83
2 -8 -10 -41 -14 -121 -15 l-110 -1 0 68 c0 38 3 72 7 76 4 4 19 6 33 4 22 -3
25 -8 28 -50z m411 17 c21 -19 41 -35 45 -35 3 0 6 16 6 35 0 32 2 35 30 35
l31 0 -3 -72 c-3 -66 -5 -73 -25 -76 -14 -2 -36 10 -62 33 l-40 36 -3 -33 c-3
-29 -6 -33 -33 -33 -30 0 -30 1 -33 59 -2 32 -1 65 2 72 9 24 45 15 85 -21z
m-642 -179 c-4 -9 -11 -16 -17 -16 -11 0 -14 33 -3 44 11 10 26 -11 20 -28z
m41 22 c7 -7 12 -8 12 -2 0 6 29 11 69 12 66 1 69 1 69 -23 0 -20 -6 -25 -25
-25 -13 0 -26 7 -29 15 -4 8 -10 15 -15 15 -5 0 -9 -7 -9 -15 0 -8 -4 -15 -10
-15 -5 0 -10 7 -10 15 0 18 -17 20 -22 4 -2 -7 -16 -13 -31 -15 -23 -2 -27 1
-27 22 0 26 9 31 28 12z m210 -14 c2 -17 -2 -22 -22 -21 -21 0 -26 4 -26 24 0
20 4 24 23 21 13 -2 23 -11 25 -24z m40 14 c9 -9 12 -9 12 0 0 7 5 12 10 12 6
0 10 -11 10 -25 0 -27 -9 -32 -28 -13 -9 9 -12 9 -12 0 0 -7 -4 -12 -10 -12
-5 0 -10 11 -10 25 0 27 9 32 28 13z m92 -7 c14 -27 14 -28 -20 -28 -16 0 -30
2 -30 4 0 12 22 43 30 43 5 0 14 -9 20 -19z m66 3 c-3 -9 -6 -20 -6 -25 0 -5
-7 -9 -15 -9 -8 0 -15 4 -15 9 0 5 -3 16 -6 25 -5 12 0 16 21 16 21 0 26 -4
21 -16z m34 -9 c0 -14 -4 -25 -10 -25 -5 0 -10 11 -10 25 0 14 5 25 10 25 6 0
10 -11 10 -25z m65 15 c5 -8 12 -7 22 1 11 10 16 10 23 0 6 -11 8 -11 12 0 7
20 27 1 21 -20 -5 -20 -63 -28 -63 -9 0 7 -5 6 -15 -2 -17 -14 -55 -4 -55 15
0 22 44 33 55 15z m133 -2 c20 -20 13 -33 -18 -34 -34 -1 -34 0 -20 27 12 22
21 24 38 7z m55 -8 c22 -27 22 -30 -8 -30 -20 0 -25 5 -25 25 0 30 10 32 33 5z"/>
<path d="M703 245 c0 -9 10 -15 24 -15 14 0 23 6 23 15 0 9 -9 15 -23 15 -14
0 -24 -6 -24 -15z"/>
<path d="M1090 235 c-10 -13 -9 -15 8 -15 15 0 20 5 16 15 -4 8 -7 15 -9 15
-1 0 -8 -7 -15 -15z"/>
</g>
</svg>
